<svg width="32" height="32" viewBox="0 0 32 32" fill="none" xmlns="http://www.w3.org/2000/svg">
<path fill-rule="evenodd" clip-rule="evenodd" d="M16 0.0065918C20.3453 0.0065918 20.8902 0.0250103 22.5968 0.102876C24.2998 0.180551 25.4629 0.451049 26.4806 0.846603C27.5327 1.25543 28.425 1.80252 29.3146 2.69201C30.2041 3.58156 30.7512 4.47384 31.1601 5.52598C31.5555 6.5437 31.826 7.7068 31.9037 9.40981C31.9816 11.1164 32 11.6613 32 16.0066C32 20.3519 31.9816 20.8968 31.9037 22.6034C31.826 24.3064 31.5555 25.4695 31.1601 26.4872C30.7512 27.5393 30.2041 28.4316 29.3146 29.3212C28.425 30.2107 27.5327 30.7578 26.4806 31.1666C25.4629 31.5621 24.2998 31.8326 22.5968 31.9103C20.8902 31.9882 20.3453 32.0066 16 32.0066C11.6547 32.0066 11.1098 31.9882 9.40322 31.9103C7.70021 31.8326 6.53711 31.5621 5.51939 31.1666C4.46725 30.7578 3.57497 30.2107 2.68542 29.3212C1.79593 28.4316 1.24884 27.5393 0.840011 26.4872C0.444458 25.4695 0.17396 24.3064 0.0962843 22.6034C0.0184185 20.8968 0 20.3519 0 16.0066C0 11.6613 0.0184185 11.1164 0.0962843 9.40981C0.17396 7.7068 0.444458 6.5437 0.840011 5.52598C1.24884 4.47384 1.79593 3.58156 2.68542 2.69201C3.57497 1.80252 4.46725 1.25543 5.51939 0.846603C6.53711 0.451049 7.70021 0.180551 9.40322 0.102876C11.1098 0.0250103 11.6547 0.0065918 16 0.0065918ZM16 2.88947C11.7278 2.88947 11.2218 2.90579 9.53463 2.98277C7.97464 3.0539 7.12745 3.31456 6.56366 3.53367C5.81682 3.82392 5.28383 4.17064 4.72397 4.73056C4.16404 5.29042 3.81733 5.82341 3.52708 6.57025C3.30796 7.13405 3.04731 7.98123 2.97618 9.54122C2.8992 11.2284 2.88288 11.7344 2.88288 16.0066C2.88288 20.2788 2.8992 20.7848 2.97618 22.472C3.04731 24.0319 3.30796 24.8791 3.52708 25.4429C3.81733 26.1898 4.16411 26.7228 4.72397 27.2826C5.28383 27.8425 5.81682 28.1893 6.56366 28.4795C7.12745 28.6986 7.97464 28.9593 9.53463 29.0304C11.2216 29.1074 11.7275 29.1237 16 29.1237C20.2725 29.1237 20.7785 29.1074 22.4654 29.0304C24.0254 28.9593 24.8725 28.6986 25.4363 28.4795C26.1832 28.1893 26.7162 27.8425 27.276 27.2826C27.836 26.7228 28.1827 26.1898 28.4729 25.4429C28.692 24.8791 28.9527 24.0319 29.0238 22.472C29.1008 20.7848 29.1171 20.2788 29.1171 16.0066C29.1171 11.7344 29.1008 11.2284 29.0238 9.54122C28.9527 7.98123 28.692 7.13405 28.4729 6.57025C28.1827 5.82341 27.836 5.29042 27.276 4.73056C26.7162 4.17064 26.1832 3.82392 25.4363 3.53367C24.8725 3.31456 24.0254 3.0539 22.4654 2.98277C20.7782 2.90579 20.2722 2.88947 16 2.88947ZM16 21.3399C18.9455 21.3399 21.3333 18.9521 21.3333 16.0066C21.3333 13.0611 18.9455 10.6733 16 10.6733C13.0545 10.6733 10.6667 13.0611 10.6667 16.0066C10.6667 18.9521 13.0545 21.3399 16 21.3399ZM16 7.79038C20.5377 7.79038 24.2162 11.4689 24.2162 16.0066C24.2162 20.5443 20.5377 24.2228 16 24.2228C11.4623 24.2228 7.78379 20.5443 7.78379 16.0066C7.78379 11.4689 11.4623 7.79038 16 7.79038ZM24.0076 9.99965C22.9027 9.99965 22.0069 9.10394 22.0069 7.99902C22.0069 6.8941 22.9027 5.99839 24.0076 5.99839C25.1125 5.99839 26.0082 6.8941 26.0082 7.99902C26.0082 9.10394 25.1125 9.99965 24.0076 9.99965Z" fill="#637381"/>
</svg>
